<svg height="511pt" viewBox="-16 0 511 511.99808" width="511pt" xmlns="http://www.w3.org/2000/svg"><path d="m391.324219 279.976562-75.835938-98.558593c-3.152343-4.09375-8.027343-6.496094-13.195312-6.496094h-207.578125c-5.167969 0-10.042969 2.402344-13.195313 6.496094l-75.835937 98.558593c-7.011719 9.113282-6.890625 21.839844.289062 30.824219l155.894532 194.941407c3.160156 3.953124 7.941406 6.25 13 6.25h47.273437c5.054687 0 9.839844-2.296876 13-6.25l155.894531-194.941407c7.183594-8.984375 7.300782-21.710937.289063-30.824219zm0 0" fill="#b7e5f7"/><path d="m391.324219 279.976562-75.835938-98.558593c-3.152343-4.09375-8.027343-6.496094-13.195312-6.496094h-38.402344c5.167969 0 10.042969 2.402344 13.195313 6.496094l75.832031 98.558593c7.015625 9.113282 6.894531 21.839844-.285157 30.824219l-155.898437 194.941407c-3.15625 3.953124-7.941406 6.25-13 6.25h38.402344c5.058593 0 9.84375-2.296876 13.003906-6.25l155.894531-194.941407c7.183594-8.984375 7.300782-21.710937.289063-30.824219zm0 0" fill="#84c8d8"/><path d="m185.453125 512h-10.589844c-5.058593 0-9.835937-2.300781-13-6.261719l-155.886719-194.941406c-3.578124-4.460937-5.410156-9.890625-5.476562-15.300781h110.070312zm0 0" fill="#94d8ed"/><path d="m396.511719 295.496094h-110.074219l-39.839844-120.578125h55.703125c5.160157 0 10.039063 2.398437 13.183594 6.492187l75.832031 98.570313c3.527344 4.5625 5.242188 10.054687 5.195313 15.515625zm0 0" fill="#def6ff"/><path d="m395.984375 290.136719c-.75-3.609375-2.300781-7.089844-4.667969-10.15625l-58.8125-76.445313-17.015625-22.117187c-3.152343-4.09375-8.027343-6.496094-13.195312-6.496094h-38.402344c5.167969 0 10.039063 2.402344 13.191406 6.496094l75.835938 98.558593c3.519531 4.574219 5.242187 10.058594 5.179687 15.519532h38.402344c.019531-1.714844-.136719-3.433594-.46875-5.121094-.007812-.054688-.019531-.109375-.03125-.164062-.003906-.023438-.011719-.050782-.015625-.074219zm0 0" fill="#b7e5f7"/><path d="m286.4375 295.496094h-175.867188l39.839844-120.578125h96.1875zm0 0" fill="#94d8ed"/><path d="m286.4375 295.496094-74.882812 216.503906h-26.101563l-74.882813-216.503906zm0 0" fill="#def6ff"/><path d="m185.449219 511.992188h26.109375l15.101562-43.671876-29.925781 37.421876c-2.804687 3.511718-6.890625 5.714843-11.3125 6.164062zm0 0" fill="#b7e5f7"/><path d="m353.417969 140.441406-23.894531-86.714844-74.042969 51.070313-72.75-79.292969 3.84375 135.105469c.121093 4.261719 2.832031 8.019531 6.84375 9.480469l165.574219 60.265625c4.011718 1.457031 8.503906.320312 11.335937-2.867188l89.789063-101.023437zm0 0" fill="#ffcd34"/><path d="m418.019531 131.976562-71.683593 86.78125c-2.679688 3.242188-6.796876 4.515626-10.386719 3.207032l23.042969 8.386718c4.011718 1.460938 8.503906.324219 11.335937-2.863281l89.789063-101.027343zm0 0" fill="#e69012"/><g fill="#ff8736"><path d="m338.394531 29.328125c-7.289062-2.65625-15.347656 1.105469-18 8.394531-2.65625 7.289063 1.105469 15.347656 8.394531 18 7.289063 2.65625 15.347657-1.105468 18-8.394531 2.65625-7.289063-1.105468-15.347656-8.394531-18zm0 0"/><path d="m469.355469 102.035156c-7.289063-2.652344-15.351563 1.105469-18.003907 8.394532-2.652343 7.289062 1.105469 15.347656 8.394532 18.003906 7.289062 2.652344 15.351562-1.105469 18.003906-8.398438 2.652344-7.289062-1.105469-15.347656-8.394531-18zm0 0"/><path d="m191.339844.847656c-7.289063-2.652344-15.347656 1.105469-18.003906 8.394532-2.652344 7.289062 1.105468 15.351562 8.398437 18.003906 7.289063 2.652344 15.347656-1.105469 18-8.394532 2.652344-7.292968-1.105469-15.351562-8.394531-18.003906zm0 0"/></g><path d="m300.335938 133.894531c-8.367188-3.046875-18.445313 3.53125-22.507813 14.6875-4.058594 11.160157-.566406 22.675781 7.800781 25.722657 8.371094 3.046874 18.449219-3.53125 22.507813-14.691407 4.0625-11.160156.570312-22.675781-7.800781-25.71875zm0 0" fill="#fa7ec1"/><path d="m73.566406 143.339844c-3.0625 0-5.9375-1.890625-7.046875-4.9375l-8.085937-22.214844c-1.417969-3.890625.589844-8.195312 4.484375-9.613281 3.890625-1.417969 8.195312.589843 9.613281 4.484375l8.082031 22.214844c1.417969 3.890624-.589843 8.195312-4.480469 9.613281-.847656.304687-1.714843.453125-2.566406.453125zm0 0" fill="#ff8736"/><path d="m118.480469 141.640625c-1.0625 0-2.140625-.230469-3.164063-.707031-3.753906-1.75-5.378906-6.210938-3.628906-9.964844l8.945312-19.179688c1.75-3.753906 6.210938-5.378906 9.964844-3.628906s5.378906 6.214844 3.628906 9.96875l-8.945312 19.175782c-1.269531 2.730468-3.976562 4.335937-6.800781 4.335937zm0 0" fill="#ff8736"/><path d="m38.058594 170.910156c-1.0625 0-2.140625-.226562-3.167969-.703125l-19.175781-8.941406c-3.753906-1.75-5.378906-6.214844-3.628906-9.96875 1.753906-3.753906 6.214843-5.375 9.96875-3.628906l19.175781 8.941406c3.753906 1.75 5.378906 6.214844 3.628906 9.96875-1.273437 2.730469-3.976563 4.332031-6.800781 4.332031zm0 0" fill="#ff8736"/></svg>