<svg id="Flat" enable-background="new 0 0 512 512" height="512" viewBox="0 0 512 512" width="512" xmlns="http://www.w3.org/2000/svg"><g><path d="m256 320c-1.546875 0-3.0942383-.4482422-4.4375-1.34375l-48-32c-2.2255859-1.4833984-3.5625-3.9814453-3.5625-6.65625v-48c0-2.6748047 1.3369141-5.1728516 3.5625-6.65625l48-32c2.6865234-1.7910156 6.1884766-1.7910156 8.875 0l48 32c2.2255859 1.4833984 3.5625 3.9814453 3.5625 6.65625v48c0 2.6748047-1.3369141 5.1728516-3.5625 6.65625l-48 32c-1.3432617.8955078-2.890625 1.34375-4.4375 1.34375zm-40-44.28125 40 26.6660156 40-26.6660156v-39.4375l-40-26.6660156-40 26.6660156z" fill="#7f8b8c"/><path d="m352 320c-1.546875 0-3.0942383-.4482422-4.4375-1.34375l-48-32c-2.2255859-1.4833984-3.5625-3.9814453-3.5625-6.65625v-48c0-2.6748047 1.3369141-5.1728516 3.5625-6.65625l48-32c2.6865234-1.7910156 6.1884766-1.7910156 8.875 0l48 32c2.2255859 1.4833984 3.5625 3.9814453 3.5625 6.65625v48c0 2.6748047-1.3369141 5.1728516-3.5625 6.65625l-48 32c-1.3432617.8955078-2.890625 1.34375-4.4375 1.34375zm-40-44.28125 40 26.6660156 40-26.6660156v-39.4375l-40-26.6660156-40 26.6660156z" fill="#35495e"/><path d="m304 400c-1.546875 0-3.0942383-.4482422-4.4375-1.34375l-48-32c-2.2255859-1.4833984-3.5625-3.9814453-3.5625-6.65625v-48c0-2.6748047 1.3369141-5.1728516 3.5625-6.65625l48-32c2.6865234-1.7910156 6.1884766-1.7910156 8.875 0l48 32c2.2255859 1.4833984 3.5625 3.9814453 3.5625 6.65625v48c0 2.6748047-1.3369141 5.1728516-3.5625 6.65625l-48 32c-1.3432617.8955078-2.890625 1.34375-4.4375 1.34375zm-40-44.28125 40 26.6660156 40-26.6660156v-39.4375l-40-26.6660156-40 26.6660156z" fill="#7f8b8c"/><path d="m352 480c-1.546875 0-3.0942383-.4482422-4.4375-1.34375l-48-32c-2.2255859-1.4833984-3.5625-3.9814453-3.5625-6.65625v-48c0-2.6748047 1.3369141-5.1728516 3.5625-6.65625l48-32c2.6865234-1.7910156 6.1884766-1.7910156 8.875 0l48 32c2.2255859 1.4833984 3.5625 3.9814453 3.5625 6.65625v48c0 2.6748047-1.3369141 5.1728516-3.5625 6.65625l-48 32c-1.3432617.8955078-2.890625 1.34375-4.4375 1.34375zm-40-44.28125 40 26.6660156 40-26.6660156v-39.4375l-40-26.6660156-40 26.6660156z" fill="#bcc2c6"/><path d="m352 496c-4.418457 0-8-3.5820313-8-8v-11.71875l-44.4375-29.625c-3.6762695-2.4501953-4.6699219-7.4179688-2.21875-11.09375 2.4511719-3.6767578 7.4179688-4.6689453 11.09375-2.21875l48 32c2.2255859 1.4833984 3.5625 3.9814453 3.5625 6.65625v16c0 4.4179688-3.581543 8-8 8z" fill="#7f8b8c"/><path d="m400 240c-1.546875 0-3.0942383-.4482422-4.4375-1.34375l-48-32c-2.2255859-1.4833984-3.5625-3.9814453-3.5625-6.65625v-48c0-2.6748047 1.3369141-5.1728516 3.5625-6.65625l48-32c2.6865234-1.7910156 6.1884766-1.7910156 8.875 0l48 32c2.2255859 1.4833984 3.5625 3.9814453 3.5625 6.65625v48c0 2.6748047-1.3369141 5.1728516-3.5625 6.65625l-48 32c-1.3432617.8955078-2.890625 1.34375-4.4375 1.34375zm-40-44.28125 40 26.6660156 40-26.6660156v-39.4375l-40-26.6660156-40 26.6660156z" fill="#bcc2c6"/><g fill="#7f8b8c"><path d="m447.9926758 320.0009766c-1.5249023 0-3.0664063-.4355469-4.4301758-1.3447266l-48-32c-2.2255859-1.4833984-3.5625-3.9814453-3.5625-6.65625v-48c0-2.6748047 1.3369141-5.1728516 3.5625-6.65625l48-32c2.6865234-1.7910156 6.1884766-1.7910156 8.875 0l48 32c3.6762695 2.4501953 4.6699219 7.4179688 2.21875 11.09375-2.4511719 3.6767578-7.4179688 4.6689453-11.09375 2.21875l-43.5625-29.0410156-40 26.6660156v39.4375l44.4375 29.625c3.6762695 2.4501953 4.6699219 7.4179688 2.21875 11.09375-1.5415039 2.3125-4.0786133 3.5634766-6.6635742 3.5634766z"/><path d=""/><path d="m448 160c-1.546875 0-3.0942383-.4482422-4.4375-1.34375l-48-32c-2.2255859-1.4833984-3.5625-3.9814453-3.5625-6.65625v-48c0-4.4179688 3.581543-8 8-8s8 3.5820313 8 8v43.71875l40 26.6660156 43.5625-29.0410156c3.6757813-2.4501953 8.6430664-1.4570313 11.09375 2.21875 2.4511719 3.6757813 1.4575195 8.6435547-2.21875 11.09375l-48 32c-1.3432617.8955078-2.890625 1.34375-4.4375 1.34375z"/><path d="m208 240c-1.546875 0-3.0942383-.4482422-4.4375-1.34375l-48-32c-2.2255859-1.4833984-3.5625-3.9814453-3.5625-6.65625v-48c0-2.6748047 1.3369141-5.1728516 3.5625-6.65625l48-32c2.6865234-1.7910156 6.1884766-1.7910156 8.875 0l48 32c2.2255859 1.4833984 3.5625 3.9814453 3.5625 6.65625v48c0 2.6748047-1.3369141 5.1728516-3.5625 6.65625l-48 32c-1.3432617.8955078-2.890625 1.34375-4.4375 1.34375zm-40-44.28125 40 26.6660156 40-26.6660156v-39.4375l-40-26.6660156-40 26.6660156z"/></g><path d="m160 320c-1.546875 0-3.0942383-.4482422-4.4375-1.34375l-48-32c-2.2255859-1.4833984-3.5625-3.9814453-3.5625-6.65625v-48c0-2.6748047 1.3369141-5.1728516 3.5625-6.65625l48-32c2.6865234-1.7910156 6.1884766-1.7910156 8.875 0l48 32c2.2255859 1.4833984 3.5625 3.9814453 3.5625 6.65625v48c0 2.6748047-1.3369141 5.1728516-3.5625 6.65625l-48 32c-1.3432617.8955078-2.890625 1.34375-4.4375 1.34375zm-40-44.28125 40 26.6660156 40-26.6660156v-39.4375l-40-26.6660156-40 26.6660156z" fill="#bcc2c6"/><path d="m112 80c-1.546875 0-3.0942383-.4482422-4.4375-1.34375l-48-32c-2.2255859-1.4833984-3.5625-3.9814453-3.5625-6.65625v-16c0-4.4179688 3.581543-8 8-8s8 3.5820313 8 8v11.71875l40 26.6660156 40-26.6660156v-11.71875c0-4.4179688 3.581543-8 8-8s8 3.5820313 8 8v16c0 2.6748047-1.3369141 5.1728516-3.5625 6.65625l-48 32c-1.3432617.8955078-2.890625 1.34375-4.4375 1.34375z" fill="#7f8b8c"/><path d="m64.0073242 160.0009766c-2.5854492 0-5.1220703-1.2509766-6.6635742-3.5634766-2.4511719-3.6757813-1.4575195-8.6435547 2.21875-11.09375l44.4375-29.625v-39.4375l-40-26.6660156-43.5625 29.0410156c-3.6757813 2.4501953-8.6430664 1.4570313-11.09375-2.21875-2.4511719-3.6757813-1.4575195-8.6435547 2.21875-11.09375l48-32c2.6865234-1.7910156 6.1884766-1.7910156 8.875 0l48 32c2.2255859 1.4833984 3.5625 3.9814453 3.5625 6.65625v48c0 2.6748047-1.3369141 5.1728516-3.5625 6.65625l-48 32c-1.3637695.9091797-2.9052734 1.3447266-4.4301758 1.3447266z" fill="#7f8b8c"/><path d="m112 400c-1.546875 0-3.0942383-.4482422-4.4375-1.34375l-48-32c-2.2255859-1.4833984-3.5625-3.9814453-3.5625-6.65625v-48c0-2.6748047 1.3369141-5.1728516 3.5625-6.65625l48-32c2.6865234-1.7910156 6.1884766-1.7910156 8.875 0l48 32c2.2255859 1.4833984 3.5625 3.9814453 3.5625 6.65625v48c0 2.6748047-1.3369141 5.1728516-3.5625 6.65625l-48 32c-1.3432617.8955078-2.890625 1.34375-4.4375 1.34375zm-40-44.28125 40 26.6660156 40-26.6660156v-39.4375l-40-26.6660156-40 26.6660156z" fill="#35495e"/><path d="m112 448c-4.418457 0-8-3.5820313-8-8v-43.71875l-40-26.6660156-43.5625 29.0410156c-3.6757813 2.4511719-8.6430664 1.4580078-11.09375-2.21875-2.4511719-3.6757813-1.4575195-8.6435547 2.21875-11.09375l48-32c2.6865234-1.7910156 6.1884766-1.7910156 8.875 0l48 32c2.2255859 1.4833984 3.5625 3.9814453 3.5625 6.65625v48c0 4.4179688-3.581543 8-8 8z" fill="#7f8b8c"/><path d="m160 160c-1.546875 0-3.0942383-.4482422-4.4375-1.34375l-48-32c-2.2255859-1.4833984-3.5625-3.9814453-3.5625-6.65625v-48c0-2.6748047 1.3369141-5.1728516 3.5625-6.65625l48-32c2.6865234-1.7910156 6.1884766-1.7910156 8.875 0l48 32c2.2255859 1.4833984 3.5625 3.9814453 3.5625 6.65625v48c0 2.6748047-1.3369141 5.1728516-3.5625 6.65625l-48 32c-1.3432617.8955078-2.890625 1.34375-4.4375 1.34375zm-40-44.28125 40 26.6660156 40-26.6660156v-39.4375l-40-26.6660156-40 26.6660156z" fill="#35495e"/></g></svg>