<svg id="Layer_2" enable-background="new 0 0 512 512" height="512" viewBox="0 0 512 512" width="512" xmlns="http://www.w3.org/2000/svg"><g><path d="m478.5 107h-114.687l65.558-65.558c1.319.352 2.699.558 4.129.558 8.837 0 16-7.164 16-16s-7.163-16-16-16-16 7.164-16 16c0 1.43.206 2.81.558 4.129l-65.558 65.558-65.558-65.558c.352-1.319.558-2.699.558-4.129 0-8.836-7.163-16-16-16s-16 7.164-16 16 7.163 16 16 16c1.43 0 2.81-.206 4.129-.558l65.558 65.558h-308.687c-15.464 0-28 12.536-28 28v344c0 15.464 12.536 28 28 28h446c15.464 0 28-12.536 28-28v-344c0-15.464-12.536-28-28-28z" fill="#6e83b7"/><g><path d="m44.5 147h355v320h-355z" fill="#80d6fb"/></g><g><circle cx="454.5" cy="210" fill="#edeff1" r="36"/></g><g><path d="m418.5 310h72v20h-72z" fill="#466089"/></g><g><path d="m418.5 358h72v20h-72z" fill="#466089"/></g><g><path d="m418.5 406h72v20h-72z" fill="#466089"/></g><g><g><g><path d="m82 311.464h280v118.072h-280z" fill="#ffb0aa"/></g><g><path d="m348.506 348.452v-20h-57.229v87.47h57.229v-20h-37.229v-13.735h25.422v-20h-25.422v-13.735z" fill="#edeff1"/><g><path d="m147.783 415.922h-52.169v-87.59h20v67.59h32.169z" fill="#edeff1"/></g><g><path d="m253.189 417.608h-28.215l-19.721-30.677v-58.599h20v52.725l10.64 16.551h5.52l9.382-16.912v-52.364h20v57.54z" fill="#edeff1"/></g><g><path d="m164.771 328.332h20v87.71h-20z" fill="#edeff1"/></g></g></g><g><g><path d="m240.542 244.665c-10.224-10.224-26.859-10.224-37.083 0l-14.142-14.143c18.021-18.021 47.345-18.021 65.366 0z" fill="#6e83b7"/></g><g><path d="m270.608 214.598c-26.803-26.803-70.414-26.803-97.217 0l-14.142-14.143c34.601-34.6 90.899-34.6 125.5 0z" fill="#6e83b7"/></g><g><circle cx="222" cy="269.66" fill="#6e83b7" r="15.748"/></g></g></g></g></svg>