<svg id="Capa_1" enable-background="new 0 0 510 510" height="512" viewBox="0 0 510 510" width="512" xmlns="http://www.w3.org/2000/svg"><g id="XMLID_2529_"><g id="XMLID_4034_"><g><g id="XMLID_650_"><g id="XMLID_651_"><path id="XMLID_652_" d="m230.667 413.955-20.667 6.334v33.686l-94.121 26.89 8.242 28.846 102.98-29.422h27.899l15-30-15-30z" fill="#354367"/></g></g></g></g><g id="XMLID_4032_"><g><g id="XMLID_932_"><g id="XMLID_1085_"><path id="XMLID_1199_" d="m300 453.975v-33.686l-25.5-8.5-19.5 8.5v60h27.898l102.981 29.422 8.242-28.846z" fill="#282a4b"/></g></g></g></g><g id="XMLID_4029_"><g><g id="XMLID_1248_"><g id="XMLID_1255_"><path id="XMLID_1307_" d="m0 45.289v375h255l45-240-165-135z" fill="#455e80"/></g></g></g></g><g id="XMLID_4026_"><g><g id="XMLID_1368_"><g id="XMLID_1381_"><path id="XMLID_1407_" d="m510 45.289h-135l-120 164.999v210.001h255z" fill="#354367"/></g></g></g></g><g id="XMLID_4002_"><g id="XMLID_3999_"><path id="XMLID_4131_" d="m30 75.289v270l105 15 120-15 30-150-150-120z" fill="#e6ecf2"/></g></g><g id="XMLID_3998_"><g id="XMLID_3997_"><path id="XMLID_1043_" d="m255 210.289v135l90 15 135-15v-270h-105z" fill="#cfd7e6"/></g></g><path id="XMLID_4132_" d="m135 30.289v315l60 10 60-10 15-165-15-150-60-15z" fill="#fff5f5"/><path id="XMLID_4173_" d="m255 30.289v315l50 10 70-10v-315l-60-15z" fill="#e6ecf2"/><g id="XMLID_4126_"><g><path id="XMLID_1217_" d="m195 240.289h60v30h-60z" fill="#455e80"/></g></g><g id="XMLID_4125_"><g><g id="XMLID_1229_"><path d="m285 240.289h30v30h-30z" fill="#354367"/></g></g></g><path id="XMLID_4127_" d="m230.043 125.746c-20.656 9.49-35.043 30.361-35.043 54.543l30 10 30-10 15-15-15-30z" fill="#7dd5f4"/><path id="XMLID_4128_" d="m279.957 125.746-24.957 9.543v45l40 10 20-10c0-24.182-14.387-45.053-35.043-54.543z" fill="#6ba7ff"/><path id="XMLID_4130_" d="m217.5 97.789c0 20.677 16.822 37.5 37.5 37.5l15-30-15-45c-20.678 0-37.5 16.822-37.5 37.5z" fill="#ffcdbe"/><path id="XMLID_4001_" d="m292.5 97.789c0-20.678-16.822-37.5-37.5-37.5v75c20.678 0 37.5-16.823 37.5-37.5z" fill="#ffbeaa"/><path id="XMLID_4025_" d="m195 180.289v30h60l10-15-10-15z" fill="#6ba7ff"/><path id="XMLID_4129_" d="m255 180.289h60v30h-60z" fill="#4793ff"/><g id="XMLID_3993_"><g><g id="XMLID_1265_"><path id="XMLID_1268_" d="m30 345.289v45h225l15-30-15-15z" fill="#4fe5a5"/></g></g></g><g id="XMLID_3981_"><g id="XMLID_4172_"><path id="XMLID_4303_" d="m255 345.289h225v45h-225z" fill="#e63a57"/></g></g><path id="XMLID_4156_" d="m255 .289h-120v30h120l15-15z" fill="#e6ecf2"/><path id="XMLID_4169_" d="m255 .289h120v30h-120z" fill="#cfd7e6"/></g></svg>