<?xml version="1.0" encoding="iso-8859-1"?>
<!-- Generator: Adobe Illustrator 19.0.0, SVG Export Plug-In . SVG Version: 6.00 Build 0)  -->
<svg version="1.1" id="Capa_1" xmlns="http://www.w3.org/2000/svg" xmlns:xlink="http://www.w3.org/1999/xlink" x="0px" y="0px"
	 viewBox="0 0 512 512" style="enable-background:new 0 0 512 512;" xml:space="preserve">
<path style="fill:#57555C;" d="M286,90H15C6.709,90,0,83.291,0,75s6.709-15,15-15h271c8.291,0,15,6.709,15,15S294.291,90,286,90z"/>
<path style="fill:#3C3A41;" d="M497,90h-91c-8.291,0-15-6.709-15-15s6.709-15,15-15h91c8.291,0,15,6.709,15,15S505.291,90,497,90z"
	/>
<g>
	<path style="fill:#57555C;" d="M106,271H15c-8.291,0-15-6.709-15-15s6.709-15,15-15h91c8.291,0,15,6.709,15,15
		C121,264.291,114.291,271,106,271z"/>
	<path style="fill:#57555C;" d="M497,271H226c-8.291,0-15-6.709-15-15s6.709-15,15-15h271c8.291,0,15,6.709,15,15
		C512,264.291,505.291,271,497,271z"/>
	<path style="fill:#57555C;" d="M286,452H15c-8.291,0-15-6.709-15-15s6.709-15,15-15h271c8.291,0,15,6.709,15,15
		S294.291,452,286,452z"/>
</g>
<path style="fill:#3C3A41;" d="M497,452h-91c-8.291,0-15-6.709-15-15s6.709-15,15-15h91c8.291,0,15,6.709,15,15S505.291,452,497,452
	z"/>
<path style="fill:#549CFF;" d="M166,331c-41.353,0-75-33.647-75-75s33.647-75,75-75s75,33.647,75,75S207.353,331,166,331z"/>
<g>
	<path style="fill:#3C3A41;" d="M286,422h-30v30h30c8.291,0,15-6.709,15-15S294.291,422,286,422z"/>
	<path style="fill:#3C3A41;" d="M497,241H256v30h241c8.291,0,15-6.709,15-15S505.291,241,497,241z"/>
	<path style="fill:#3C3A41;" d="M286,60h-30v30h30c8.291,0,15-6.709,15-15S294.291,60,286,60z"/>
</g>
<g>
	<path style="fill:#1689FC;" d="M346,150c-41.353,0-75-33.647-75-75s33.647-75,75-75s75,33.647,75,75S387.353,150,346,150z"/>
	<path style="fill:#1689FC;" d="M346,512c-41.353,0-75-33.647-75-75s33.647-75,75-75s75,33.647,75,75S387.353,512,346,512z"/>
</g>
<g>
</g>
<g>
</g>
<g>
</g>
<g>
</g>
<g>
</g>
<g>
</g>
<g>
</g>
<g>
</g>
<g>
</g>
<g>
</g>
<g>
</g>
<g>
</g>
<g>
</g>
<g>
</g>
<g>
</g>
</svg>
