<svg id="Layer_1" enable-background="new 0 0 256 256" height="512" viewBox="0 0 256 256" width="512" xmlns="http://www.w3.org/2000/svg"><g><g><g><g><g><path d="m216.389 173.258v-90.516c0-3.573-1.906-6.874-5-8.66l-78.389-45.258c-3.094-1.786-6.906-1.786-10 0l-78.389 45.258c-3.094 1.786-5 5.088-5 8.66v90.516c0 3.573 1.906 6.874 5 8.66l78.389 45.258c3.094 1.786 6.906 1.786 10 0l78.389-45.258c3.094-1.786 5-5.087 5-8.66z" fill="#e63950"/></g></g></g><g><g><g><path d="m45.609 94.61c-1.1 0-2-.9-2-2 0-1.11.9-2 2-2 1.101 0 2 .89 2 2 0 1.1-.899 2-2 2zm0-8c-1.1 0-2-.9-2-2v-1.87c0-2.13 1.15-4.12 3-5.19l78.391-45.26c1.819-1.05 4.18-1.05 6 0l49.569 28.62c.961.55 1.29 1.78.74 2.73-.54.92-1.81 1.27-2.74.73l-49.569-28.62c-.61-.35-1.391-.35-2 0l-78.391 45.26c-.609.35-1 1.03-1 1.73v1.85.02c0 1.1-.899 2-2 2z" fill="#e8566f"/></g></g></g><g><g><path d="m211.389 74.082-5.133-2.963c.087.532.133 1.074.133 1.624v90.516c0 3.573-1.906 6.874-5 8.66l-78.389 45.257c-3.094 1.786-6.906 1.786-10 0l-73.256-42.295c.482 2.928 2.249 5.525 4.867 7.037l78.389 45.258c3.094 1.786 6.906 1.786 10 0l78.389-45.258c3.094-1.786 5-5.088 5-8.66v-90.516c0-3.573-1.906-6.874-5-8.66z" fill="#d10028"/></g></g><g><g><path d="m211.389 74.082-.921-.532c.597 1.293.921 2.72.921 4.192v90.516c0 3.573-1.906 6.874-5 8.66l-78.389 45.258c-3.094 1.786-6.906 1.786-10 0l-77.467-44.726c.852 1.844 2.26 3.418 4.079 4.468l78.388 45.258c3.094 1.786 6.906 1.786 10 0l78.389-45.258c3.094-1.786 5-5.088 5-8.66v-90.516c0-3.573-1.906-6.874-5-8.66z" fill="#b7022d"/></g></g></g><g><g><g><path d="m96.735 100.376v55.248h-61.845c-4.149 0-7.512-3.363-7.512-7.512v-40.223c0-4.149 3.363-7.512 7.512-7.512h61.845z" fill="#ffa91a"/></g></g><g><g><path d="m86.805 100.376v45.318h-59.427v2.418c0 4.149 3.363 7.512 7.512 7.512h61.845v-55.248z" fill="#f79219"/></g></g><g><g><path d="m96.735 81.472v93.057c0 5.796 6.285 9.409 11.294 6.491l79.876-46.528c4.975-2.898 4.975-10.085 0-12.983l-79.876-46.529c-5.008-2.917-11.294.696-11.294 6.492z" fill="#ffa91a"/></g></g><g><g><path d="m187.905 121.509-6.202-3.613c.058 2.579-1.184 5.183-3.728 6.665l-79.876 46.529c-.446.26-.902.467-1.363.626v2.813c0 5.796 6.286 9.409 11.294 6.491l79.876-46.528c4.974-2.899 4.974-10.086-.001-12.983z" fill="#f79219"/></g></g></g></g></svg>