<svg height="512" viewBox="0 0 58 58" width="512" xmlns="http://www.w3.org/2000/svg"><g id="Page-1" fill="none" fill-rule="evenodd"><g id="022---Signup-Page" fill-rule="nonzero"><path id="Shape" d="m58 14v40c0 2.209139-1.790861 4-4 4h-50c-2.209139 0-4-1.790861-4-4v-40z" fill="#ecf0f1"/><path id="Shape" d="m58 10v4h-58v-10h25c1.1032019.0032948 1.9967052.89679813 2 2v2c.0032948 1.10320187.8967981 1.9967052 2 2z" fill="#3b97d3"/><path id="Shape" d="m58 4v6h-29c-1.1032019-.0032948-1.9967052-.89679813-2-2v-2c-.0032948-1.10320187-.8967981-1.9967052-2-2h-25c0-2.209139 1.790861-4 4-4h50c2.209139 0 4 1.790861 4 4z" fill="#285680"/><path id="Shape" d="m16 10h-11c-.55228475 0-1-.44771525-1-1s.44771525-1 1-1h11c.5522847 0 1 .44771525 1 1s-.4477153 1-1 1z" fill="#ecf0f1"/><path id="Shape" d="m23.414 9 .293-.293c.3789722-.39237889.3735524-1.01608478-.0121814-1.40181858-.3857338-.38573379-1.0094397-.39115363-1.4018186-.01218142l-.293.293-.293-.293c-.3923789-.37897221-1.0160848-.37355237-1.4018186.01218142-.3857338.3857338-.3911536 1.00943969-.0121814 1.40181858l.293.293-.293.293c-.2599566.25107447-.3642126.62287789-.2726972.9725073.0915155.3496295.3645604.6226744.7141899.7141899.3496294.0915154.7214328-.0127406.9725073-.2726972l.293-.293.293.293c.3923789.3789722 1.0160848.3735524 1.4018186-.0121814s.3911536-1.00943971.0121814-1.4018186z" fill="#285680"/><circle id="Oval" cx="52" cy="5" fill="#e64c3c" r="1"/><circle id="Oval" cx="48" cy="5" fill="#f0c419" r="1"/><circle id="Oval" cx="44" cy="5" fill="#24ae5f" r="1"/><circle id="Oval" cx="10" cy="23" fill="#fdd7ad" r="2"/><path id="Shape" d="m7 28c0-1.6568542 1.34314575-3 3-3 1.6568542 0 3 1.3431458 3 3 0 .5522847-.4477153 1-1 1h-4c-.55228475 0-1-.4477153-1-1z" fill="#ff5364"/><rect id="Rectangle-path" fill="#bdc3c7" height="8" rx="2" width="32" x="20" y="21"/><rect id="Rectangle-path" fill="#bdc3c7" height="8" rx="2" width="32" x="20" y="33"/><path id="Shape" d="m15 35v4c-.0032948 1.1032019-.8967981 1.9967052-2 2h-6c-1.10320187-.0032948-1.9967052-.8967981-2-2v-4c-.00282307-.5305905.2101411-1.0395388.59-1.41l2.7 2.7c.45216685.4560621 1.06777927.7126051 1.71.7126051.6422207 0 1.2578331-.256543 1.71-.7126051l2.7-2.7c.3798589.3704612.5928231.8794095.59 1.41z" fill="#f0c419"/><path id="Shape" d="m14.41 33.59-2.7 2.7c-.4521669.4560621-1.0677793.7126051-1.71.7126051-.64222073 0-1.25783315-.256543-1.71-.7126051l-2.7-2.7c.3704612-.3798589.87940947-.5928231 1.41-.59h6c.5305905-.0028231 1.0395388.2101411 1.41.59z" fill="#f3d55b"/><rect id="Rectangle-path" fill="#4fba6f" height="6" rx="3" width="18" x="34" y="45"/><rect id="Rectangle-path" fill="#bdc3c7" height="6" rx="2" width="6" x="24" y="45"/></g></g></svg>